<?xml version="1.0" standalone="no"?>
<!DOCTYPE svg PUBLIC "-//W3C//DTD SVG 20010904//EN"
 "http://www.w3.org/TR/2001/REC-SVG-20010904/DTD/svg10.dtd">
<svg version="1.0" xmlns="http://www.w3.org/2000/svg"
 width="252.000000pt" height="57.000000pt" viewBox="0 0 252.000000 57.000000"
 preserveAspectRatio="xMidYMid meet">

<g transform="translate(0.000000,57.000000) scale(0.100000,-0.100000)"
fill="#000000" stroke="none">
<path d="M792 540 c-133 -73 -264 -190 -277 -249 -5 -25 -2 -32 19 -46 22 -14
33 -15 81 -5 31 6 55 14 52 16 -2 3 -24 0 -48 -5 -59 -14 -65 -14 -83 4 -25
25 -2 70 52 101 70 41 248 163 263 180 25 31 -6 33 -59 4z m58 11 c0 -9 -263
-191 -276 -191 -25 0 100 97 212 165 64 39 64 39 64 26z"/>
<path d="M1333 529 c-79 -23 -203 -183 -203 -263 0 -55 -11 -75 -46 -88 -19
-7 -34 -15 -34 -20 0 -4 6 -5 14 -2 7 3 39 -7 71 -21 47 -20 55 -22 43 -8 -8
10 -21 27 -27 38 -12 19 -12 19 -6 -2 6 -20 4 -21 -25 -10 -28 11 -29 13 -13
24 10 7 23 17 30 23 7 5 15 10 18 10 4 0 48 33 98 74 145 117 197 200 150 237
-16 13 -17 12 -5 -3 23 -28 4 -77 -51 -135 -48 -51 -186 -163 -200 -163 -16 0
-5 79 18 128 24 52 124 162 148 162 15 1 76 28 62 28 -5 0 -24 -4 -42 -9z"/>
<path d="M1090 484 c-75 -35 -151 -93 -238 -181 -60 -61 -76 -73 -95 -68 l-22
7 21 -21 c26 -28 114 -40 139 -20 9 8 47 41 84 74 37 33 87 74 111 91 25 16
58 49 74 72 24 34 26 44 16 57 -17 20 -26 19 -90 -11z m83 10 c20 -20 -110
-158 -138 -147 -8 3 -12 10 -8 16 4 6 1 7 -6 3 -7 -5 -10 -14 -7 -22 7 -19
-57 -89 -110 -120 -39 -23 -47 -24 -79 -14 l-35 12 37 42 c54 61 112 110 121
101 4 -4 -27 -39 -68 -77 -77 -73 -53 -63 33 12 37 33 47 48 43 64 -6 25 50
71 134 110 57 27 72 30 83 20z"/>
<path d="M1036 375 c4 -8 8 -15 10 -15 2 0 4 7 4 15 0 8 -4 15 -10 15 -5 0 -7
-7 -4 -15z"/>
<path d="M812 338 c-70 -29 -74 -29 -92 -13 -41 37 -191 -2 -159 -42 6 -7 19
-13 27 -13 13 0 12 3 -4 14 -15 11 -16 17 -7 27 17 17 106 24 132 9 21 -11 22
-12 5 -25 -10 -7 -23 -12 -29 -11 -5 2 -7 1 -2 -1 4 -3 5 -9 1 -14 -9 -15 6
-10 37 11 15 12 61 34 100 51 40 16 75 32 78 34 10 11 -17 2 -87 -27z"/>
<path d="M1457 344 c-11 -12 -8 -49 5 -62 10 -10 8 -16 -7 -31 -22 -21 -95
-37 -95 -21 0 13 -126 13 -151 0 -23 -13 -26 -40 -4 -40 8 0 24 9 35 20 14 14
33 20 63 20 40 -1 41 -1 22 -16 -19 -15 -19 -15 10 -9 17 4 36 8 43 11 6 2 12
-4 12 -12 0 -15 3 -14 28 1 15 9 35 26 44 37 16 18 19 18 48 3 30 -15 42 -29
17 -19 -16 6 -55 -22 -44 -32 4 -4 14 1 22 12 10 12 14 14 13 5 -2 -8 6 -16
17 -18 16 -3 17 -2 5 6 -10 7 -11 11 -2 11 6 0 12 6 12 14 0 8 10 17 23 19 13
2 5 5 -18 6 -53 2 -61 9 -60 56 0 28 -5 40 -15 43 -9 1 -19 0 -23 -4z m33 -34
c0 -31 -16 -41 -26 -15 -8 19 2 45 16 45 5 0 10 -13 10 -30z m-260 -100 c-24
-15 -37 -11 -16 5 11 8 22 12 25 9 3 -3 -1 -9 -9 -14z"/>
<path d="M350 240 c-85 -43 -152 -79 -148 -79 12 -1 298 141 304 150 7 13 14
16 -156 -71z"/>
<path d="M628 273 c6 -2 18 -2 25 0 6 3 1 5 -13 5 -14 0 -19 -2 -12 -5z"/>
<path d="M660 225 c-8 -9 -8 -15 -2 -15 12 0 26 19 19 26 -2 2 -10 -2 -17 -11z"/>
<path d="M966 225 c-11 -8 -15 -15 -10 -15 6 0 19 7 30 15 10 8 15 14 9 14 -5
0 -19 -6 -29 -14z"/>
<path d="M1688 215 c-3 -3 -34 -10 -69 -15 l-64 -9 68 4 c39 3 67 0 67 -5 0
-17 25 -11 38 10 11 18 10 20 -11 20 -13 0 -26 -2 -29 -5z"/>
<path d="M1813 206 c-40 -7 -76 -16 -80 -20 -4 -5 1 -6 12 -3 11 3 42 9 68 13
39 5 50 3 60 -10 10 -14 29 -16 122 -13 l110 3 -112 2 c-62 1 -113 6 -113 10
0 4 5 13 12 20 14 14 17 14 -79 -2z"/>
<path d="M1025 198 c-22 -5 -59 -8 -81 -6 -23 2 -46 -1 -51 -7 -6 -7 17 -10
69 -10 43 0 72 2 66 5 -7 2 10 10 37 16 28 7 39 12 25 12 -14 0 -43 -4 -65
-10z"/>
<path d="M2123 182 c-6 -4 28 -6 75 -4 132 4 148 9 37 10 -55 1 -105 -2 -112
-6z"/>
<path d="M775 164 c-214 -33 -306 -72 -291 -122 4 -11 14 -23 23 -27 15 -5 14
-3 -1 14 -43 47 22 81 218 114 75 13 138 26 142 30 4 4 5 6 3 6 -2 -1 -44 -8
-94 -15z"/>
<path d="M1000 130 c-9 -6 -10 -10 -3 -10 6 0 15 5 18 10 8 12 4 12 -15 0z"/>
<path d="M915 94 c-27 -13 -39 -21 -25 -18 29 7 100 43 85 43 -5 0 -32 -12
-60 -25z"/>
<path d="M780 45 c-19 -7 -28 -14 -20 -14 8 0 29 6 45 14 39 17 21 18 -25 0z"/>
<path d="M668 13 c7 -3 16 -2 19 1 4 3 -2 6 -13 5 -11 0 -14 -3 -6 -6z"/>
<path d="M563 3 c15 -2 39 -2 55 0 15 2 2 4 -28 4 -30 0 -43 -2 -27 -4z"/>
</g>
</svg>
